<svg id="Group_4" data-name="Group 4" xmlns="http://www.w3.org/2000/svg" width="30.6" height="29.324" viewBox="0 0 30.6 29.324">
  <path id="Path_1" data-name="Path 1" d="M15.3.5A15.167,15.167,0,0,0,0,15.535,15.057,15.057,0,0,0,10.461,29.8c.765.142,1.045-.323,1.045-.723,0-.357-.013-1.3-.019-2.555C7.232,27.426,6.334,24.5,6.334,24.5a4.008,4.008,0,0,0-1.7-2.2c-1.386-.932.107-.913.107-.913A3.2,3.2,0,0,1,7.083,22.94a3.293,3.293,0,0,0,4.456,1.249,3.187,3.187,0,0,1,.969-2.011c-3.4-.376-6.969-1.669-6.969-7.429a5.744,5.744,0,0,1,1.575-4.034,5.26,5.26,0,0,1,.134-3.979s1.281-.4,4.207,1.541a14.669,14.669,0,0,1,7.65,0c2.907-1.944,4.188-1.541,4.188-1.541a5.4,5.4,0,0,1,.153,3.979,5.767,5.767,0,0,1,1.568,4.034c0,5.776-3.576,7.047-6.981,7.417a3.567,3.567,0,0,1,1.033,2.782c0,2.012-.019,3.629-.019,4.117,0,.4.268.864,1.052.714A15.011,15.011,0,0,0,30.6,15.535,15.17,15.17,0,0,0,15.3.5Z" transform="translate(0 -0.5)" fill="#c79b6e"/>
  <path id="Path_2" data-name="Path 2" d="M12,.5V7.77a14.836,14.836,0,0,1,3.8.507A7.4,7.4,0,0,1,19.654,6.7a1.257,1.257,0,0,1,.339.034,5.4,5.4,0,0,1,.153,3.979,5.767,5.767,0,0,1,1.568,4.034c0,5.776-3.576,7.047-6.981,7.417a3.567,3.567,0,0,1,1.033,2.782c0,2.012-.019,3.629-.019,4.117a.71.71,0,0,0,.77.743,1.547,1.547,0,0,0,.282-.028A15.014,15.014,0,0,0,27.3,15.535,15.17,15.17,0,0,0,12,.5Z" transform="translate(3.3 -0.5)" fill="#c79b6e"/>
</svg>
