<svg xmlns="http://www.w3.org/2000/svg" width="29" height="29" viewBox="0 0 29 29">
  <g id="Group_15" data-name="Group 15" transform="translate(-838 -2036)">
    <circle id="Ellipse_18" data-name="Ellipse 18" cx="14.5" cy="14.5" r="14.5" transform="translate(838 2036)" fill="#c79b6e"/>
    <g id="Layer_2" data-name="Layer 2" transform="translate(842.116 2039.116)">
      <g id="email">
        <rect id="Rectangle_21" data-name="Rectangle 21" width="22" height="22" transform="translate(-0.116 -0.116)" fill="#fff" opacity="0"/>
        <path id="Path_16" data-name="Path 16" d="M17.419,4H4.721A2.721,2.721,0,0,0,2,6.721v9.07a2.721,2.721,0,0,0,2.721,2.721h12.7a2.721,2.721,0,0,0,2.721-2.721V6.721A2.721,2.721,0,0,0,17.419,4Zm-.608,1.814L11.07,10.122,5.329,5.814ZM17.419,16.7H4.721a.907.907,0,0,1-.907-.907V6.948l6.712,5.034a.907.907,0,0,0,1.088,0l6.712-5.034v8.843A.907.907,0,0,1,17.419,16.7Z" transform="translate(-0.186 -0.372)" fill="#fff"/>
      </g>
    </g>
  </g>
</svg>
