<svg id="Group_5" data-name="Group 5" xmlns="http://www.w3.org/2000/svg" width="29.324" height="29.324" viewBox="0 0 29.324 29.324">
  <path id="Path_3" data-name="Path 3" d="M156.723,274.03c-1-.678-2.012-1.346-3.015-2.025a.269.269,0,0,0-.36,0l-2.544,1.712c2.04,1.36,6.1,4.07,6.1,4.07v-3.521C156.9,274.185,156.8,274.083,156.723,274.03Z" transform="translate(-143.028 -256.23)" fill="#c79b6e"/>
  <path id="Path_4" data-name="Path 4" d="M153.641,158.519q1.517-1,3.018-2.02a.5.5,0,0,0,.183-.349v-3.384s-4.06,2.692-6.1,4.054c.9.6,1.746,1.173,2.6,1.731A.344.344,0,0,0,153.641,158.519Z" transform="translate(-142.966 -144.861)" fill="#c79b6e"/>
  <path id="Path_5" data-name="Path 5" d="M268.12,156.206q1.552,1.051,3.118,2.083a.281.281,0,0,0,.251,0l2.6-1.732L268,152.484v3.492A.316.316,0,0,0,268.12,156.206Z" transform="translate(-252.553 -144.598)" fill="#c79b6e"/>
  <path id="Path_6" data-name="Path 6" d="M216.743,229.911a.346.346,0,0,0-.31.011c-.315.194-.619.406-.927.612l-1.66,1.114,2.542,1.693a.405.405,0,0,0,.41.007l2.554-1.7S217.121,230.162,216.743,229.911Z" transform="translate(-201.943 -216.927)" fill="#c79b6e"/>
  <path id="Path_7" data-name="Path 7" d="M141,237.116v2.593l1.939-1.3Z" transform="translate(-133.865 -223.69)" fill="#c79b6e"/>
  <path id="Path_8" data-name="Path 8" d="M46.662,32A14.662,14.662,0,1,0,61.324,46.662,14.662,14.662,0,0,0,46.662,32Zm9.1,17.346a.973.973,0,0,1-.492.857q-4.039,2.681-8.069,5.379a.9.9,0,0,1-1.112-.008q-4-2.682-8.026-5.346a.994.994,0,0,1-.5-.9V44.11a1,1,0,0,1,.5-.9c2.678-1.776,5.363-3.558,8.033-5.346A.9.9,0,0,1,47.2,37.86q4.029,2.7,8.068,5.38a.945.945,0,0,1,.488.828Z" transform="translate(-32 -32)" fill="#c79b6e"/>
  <path id="Path_9" data-name="Path 9" d="M271.157,272.107q-1.478,1-2.971,1.985a.4.4,0,0,0-.187.405v3.361l6.09-4.058-2.522-1.694A.308.308,0,0,0,271.157,272.107Z" transform="translate(-252.552 -256.317)" fill="#c79b6e"/>
  <path id="Path_10" data-name="Path 10" d="M342.347,239.653V237.06l-1.937,1.3Z" transform="translate(-320.223 -223.638)" fill="#c79b6e"/>
</svg>
